<svg xmlns="http://www.w3.org/2000/svg" width="474.728" height="170.534" viewBox="0 0 474.728 170.534">
  <g id="_404-illustrator" data-name="404-illustrator" transform="translate(-204.893 -684.204)">
    <g id="Symbols" transform="translate(615.835 715.851)">
      <g id="Scene_Plants" data-name="Scene/Plants" transform="translate(0 0)">
        <path id="Leaf-Top" d="M30.568,2.678c.823-.355,1.867.162,1.366,1.189-.537,1.1-2.3,1.022-3.3.947.1,0,.476-1.015.594-1.165A3.386,3.386,0,0,1,30.568,2.678ZM20.263,22.7C19.968,22.926,20.239,22.72,20.263,22.7ZM31.226,7.952A.958.958,0,0,1,31.261,9.4a2.384,2.384,0,0,1-1.978.346C29,9.7,27.468,9.5,27.845,9.272a1.275,1.275,0,0,0-.153.063q-.06.18-.125.359l.025.017L27.566,9.7A13.925,13.925,0,0,1,25.8,13.048a3.349,3.349,0,0,1,.806-.169c.807-.059,2.459.645,1.507,1.655-.913.968-2.193-.188-3.16-.388a45.391,45.391,0,0,1-3.281,3.611.259.259,0,0,1,.152.14,6.45,6.45,0,0,1,1.334-.553c.592-.093,1.8-.1,2.212.437.511.667-.1,1.155-.75,1.244a6.783,6.783,0,0,1-3.02-.737.3.3,0,0,1-.277-.108l-.058-.022c-1.171,1.148-2.382,2.253-3.584,3.334h.037a3.124,3.124,0,0,1,.987-.385,2.655,2.655,0,0,1,2.374.5,1.5,1.5,0,0,1,.09,2.224c-1.409,1.216-3.231-1.817-3.9-1.975-1.221,1.086-2.505,2.093-3.808,3.078a2.239,2.239,0,0,1,.441-.066c1.229-.052,4.019,1.581,2.442,2.963-1.375,1.2-2.758-1.323-3.766-2.234-1.227.917-2.459,1.827-3.66,2.776a3.376,3.376,0,0,1,1.9.111c.684.244,1.777.821,1.289,1.727-.5.921-1.819.422-2.5.086a19.089,19.089,0,0,0-1.772-1.043A22.93,22.93,0,0,0,2.905,34.84a19.917,19.917,0,0,0-1.952,4.3A12.9,12.9,0,0,0,.09,42.982c-.347-2.559.684-5.556,1.74-7.772a19.068,19.068,0,0,1,3.952-5.366c-.319-1.148-3.42-2.94-1.459-3.889,1.041-.5,2.029.472,2.2,1.457a4.1,4.1,0,0,1-.44,2.143q.752-.715,1.554-1.38c.737-.612,1.49-1.2,2.25-1.789-1.138-1.176-2.1-4.419-.47-4.856,2.411-.644,1.04,3.64.831,4.446a.13.13,0,0,1-.108-.047c.009.075.021.156.035.237,1.453-1.112,2.926-2.2,4.355-3.341a6.187,6.187,0,0,1-.439-.642,6.944,6.944,0,0,1-.851-1.374c-.343-.783-.647-2.019.391-2.415,1.13-.432,1.582.972,1.546,1.793a10.784,10.784,0,0,1-.32,1.652c-.035.172.022.96-.2.611a1.635,1.635,0,0,1-.008.278q.385-.309.765-.625a.3.3,0,0,1-.016-.1.287.287,0,0,1,.424-.246q.5-.425.993-.864c.692-.622,1.394-1.263,2.093-1.918-.137-.13-.071-.3-.2-.433s-.388-.222-.539-.35a3.78,3.78,0,0,1-.9-1.227c-.355-.737-.783-2.267.383-2.549,1.2-.291,1.725,1.187,1.753,2.1a22.959,22.959,0,0,1-.342,2.317c1.293-1.218,2.568-2.485,3.731-3.78a4.248,4.248,0,0,1-1.414-.933c-.439-.471-1.123-1.5-.283-1.977.746-.426,1.6.291,1.874.96a9.072,9.072,0,0,1,.161,1.569c.482-.55.944-1.1,1.375-1.663q.432-.556.814-1.144a.538.538,0,0,1-.151-.163c-1.193-.265-2.628-2.2-1.181-2.777.689-.273,1.385.4,1.687.937a6.846,6.846,0,0,1,.21,1.077,22.217,22.217,0,0,0,1.8-4.12.261.261,0,0,1-.193-.252A3.576,3.576,0,0,1,26.1,5.251c-.233-.407-.641-1.331.115-1.511C27.2,3.506,27.734,5,27.775,5.729c0,.084-.008.328-.023.551a.329.329,0,0,1,.1.007c.27-.887.5-1.787.685-2.691-.52-.2-.466-2.951-.093-3.324.833-.836,1.322.459,1.244,1.127a4.406,4.406,0,0,1-.954,2.1c-.05.065-.036.063-.043-.032a.188.188,0,0,1-.051.1,11.843,11.843,0,0,1-.019,1.211,27.778,27.778,0,0,1-.53,3.132q-.086.376-.19.744a6.183,6.183,0,0,1,1.263-.713A2.167,2.167,0,0,1,31.226,7.952ZM0,42.877a1.934,1.934,0,0,0,.229.915A4.994,4.994,0,0,1,0,42.877Z" transform="translate(17.394 1.678) rotate(-3)" fill="#c1dee2" fill-rule="evenodd" opacity="0.2"/>
        <g id="Plant-Left" transform="translate(0 11.796)" opacity="0.5">
          <path id="Leaf" d="M127.911,93.36c.961-1.37,2.744-4.849,4.1-5.339.871-.315.617,2.946.628,3.568a52.141,52.141,0,0,1-.482,7.182,28.065,28.065,0,0,1-4.562,11.8,14.891,14.891,0,0,1-4.567,4.967c-.9.542-1.981.632-2.869,1.1-1.035.543-.471.1-.937,1.182a24.581,24.581,0,0,0-1.154,5.024c-1.375,7.33-4.7,46.08-4.128,53.536.051.661-.87.819-.916.012-.244-4.278,1.871-33.9,2.939-43.591s2.148-18.247,3.231-21.6a90.75,90.75,0,0,1,5.663-12.749A45.109,45.109,0,0,1,127.911,93.36Z" transform="translate(-87.165 -67.881)" fill="#69a1ac" fill-rule="evenodd"/>
          <path id="Leaf-2" data-name="Leaf" d="M131.957,317.521c2.5-1.835,5.206,1.628,2.944,3.464a2.266,2.266,0,0,1-3.294-.192c-.478.583-.925,1.192-1.355,1.706-1.309,1.568-2.547,3.172-3.729,4.815-2.457,3.412-4.562,7.016-6.764,10.555-2.172,3.492-4.327,7-6.3,10.584-1.668,3.034-3.891,6.6-4.463,9.929.866-7.054,4.155-13.834,8.07-20.052,3.884-6.168,8.34-12.9,14.354-17.77A2.13,2.13,0,0,1,131.957,317.521Z" transform="translate(-84.08 -244.526)" fill="#c1dee2" fill-rule="evenodd"/>
          <path id="Leaf-3" data-name="Leaf" d="M.437,244.007c1.4.273,3.685,3.438,4.838,4.644a45.164,45.164,0,0,1,3.786,4.561,77.137,77.137,0,0,1,6.7,10.926,101.551,101.551,0,0,1,7.453,19.4,79.984,79.984,0,0,1,2.261,12.722c.081.806.925,7.016-.292,7.183-1.094.151-.756-4.716-.809-5.378A85.978,85.978,0,0,0,19.5,276.288,24.821,24.821,0,0,0,17.59,271.5c-.624-.994,0-.647-1.1-1.023-.941-.323-2.014-.244-2.978-.64a14.813,14.813,0,0,1-5.241-4.2,28.249,28.249,0,0,1-6.3-10.962,52.77,52.77,0,0,1-1.59-7.032C.293,247.019-.464,243.831.437,244.007Z" transform="translate(0 -188.216)" fill="#69a1ac" fill-rule="evenodd"/>
          <path id="Leaf-4" data-name="Leaf" d="M15.215,3.136a126.779,126.779,0,0,1,12.4,29.346c1.694,6.161,2.879,12.483,4.056,18.759,1.823,9.718,3.547,19.435,4.037,29.325.493,9.948,1.469,21.421-1.788,31,1.627-9.728.078-20.082-.2-29.87-.131-4.673-.511-9.3-1.009-13.945-.484-4.506-1.273-8.991-2.009-13.462q-.537-3.266-1.118-6.524c-.114-.648-.163-2.572-.574-3.015s-2.526-.628-3.189-.955a17.112,17.112,0,0,1-3.7-2.583A29.574,29.574,0,0,1,16.672,34.4C13.287,28.753,11.934,21.859,12,15.317,12.016,14.046,14.058.368,13.238.18q.074-.087.14-.18Q14.31,1.56,15.215,3.136Z" transform="translate(-9.257)" fill="#89c5cc" fill-rule="evenodd"/>
          <path id="Leaf-5" data-name="Leaf" d="M147.688,154.889c.081-.117.611-.933.344-.881.543-.106-.746.9.606.282-.642.606-.271,1.394-.263,2.21a19.8,19.8,0,0,1-.457,3.935,26.987,26.987,0,0,1-1.834,5.947,26.65,26.65,0,0,1-8.759,10.748,17.564,17.564,0,0,1-5.77,2.309c-1.332.373-1.438,1.062-2.145,2.355-1.472,2.692-2.918,5.375-4.216,8.158-1.55,3.324-3.055,6.65-4.474,10.032A160.089,160.089,0,0,0,110,235.391c-.05-7.2,1.615-14.61,3.715-21.471a128.159,128.159,0,0,1,5.646-14.586,18.47,18.47,0,0,0,1.513-3.917,7.22,7.22,0,0,0-.529-2.7,28.2,28.2,0,0,1-.042-11.46c.809-4.065,3.148-5.951,7.1-6.527,1.447-.211,3.286-.134,4.613-.751,1.446-.672,2.042-2.88,2.864-4.3a58.447,58.447,0,0,1,7.843-10.669,25.446,25.446,0,0,1,2.682-2.468A13.108,13.108,0,0,0,147.688,154.889Z" transform="translate(-84.851 -118.792)" fill="#89c5cc" fill-rule="evenodd"/>
          <path id="Base" d="M76.934,476H90.976a1.143,1.143,0,0,1,1.143,1.143,1.127,1.127,0,0,1-.012.167l-1.085,7.359a4.573,4.573,0,0,1-4.524,3.905H81.412a4.573,4.573,0,0,1-4.524-3.905L75.8,477.31A1.143,1.143,0,0,1,76.934,476Z" transform="translate(-58.463 -367.174)" fill="#c1dee2" fill-rule="evenodd"/>
        </g>
      </g>
    </g>
    <path id="Path_8" data-name="Path 8" d="M303.026,585.639c7.54-6.371,12.119-16.435,10.918-26.233s-8.64-18.8-18.289-20.885-20.648,3.679-23.579,13.1c-1.613-18.172-3.472-37.106-13.133-52.582-8.748-14.013-23.9-24.039-40.322-25.833s-33.712,4.981-43.953,17.943-12.749,31.8-5.576,46.685c5.284,10.962,15.019,19.12,25.219,25.757a162.762,162.762,0,0,0,111.319,24.353" transform="translate(39.893 258.335)" fill="#f2f2f2"/>
    <path id="Path_9" data-name="Path 9" d="M214.771,483.989a266.3,266.3,0,0,1,37.112,36.852,270.11,270.11,0,0,1,29.267,43.315,269,269,0,0,1,12.533,26.537c.753,1.844-2.242,2.647-2.987.823a264.329,264.329,0,0,0-24.153-45.7A265.99,265.99,0,0,0,234.15,505.8a265.349,265.349,0,0,0-21.569-19.622c-1.546-1.259.657-3.439,2.19-2.19Z" transform="translate(16.029 252.914)" fill="#fff"/>
    <path id="Path_3" data-name="Path 3" d="M57.009-132.327H93.872V-34.3H106.2V-5.618H93.872V25.91H61.039V-5.618H10.309V-31.339Zm3.556,47.767L37.57-34.3H61.039V-84.559Z" transform="translate(348.145 822.679)" fill="#0a0a0a" stroke="#fff" stroke-width="4"/>
    <path id="Path_4" data-name="Path 4" d="M58.12-135.8q25.721,0,39.056,21.217T110.51-52.114q0,40.182-13.572,61.517T58.12,30.738q-23.943,0-38.107-19.972T5.848-53.773q0-39.115,13.631-60.569T57.646-135.8ZM40.34-54.01Q40.34-3.28,57.883-3.28q9.482,0,13.69-11.2T75.781-50.1q0-26.906-4.208-39.174T57.646-101.541Q40.34-101.541,40.34-54.01Z" transform="translate(432.173 822)" fill="#0a0a0a" stroke="#fff" stroke-width="4"/>
    <path id="Path_5" data-name="Path 5" d="M57.009-132.327H93.872V-34.3H106.2V-5.618H93.872V25.91H61.039V-5.618H10.309V-31.339Zm3.556,47.767L37.57-34.3H61.039V-84.559Z" transform="translate(503.599 823.875)" fill="#0a0a0a" stroke="#fff" stroke-width="4"/>
  </g>
</svg>
