<svg xmlns="http://www.w3.org/2000/svg" width="400.258" height="94.875" viewBox="0 0 400.258 94.875">
  <g id="logo-gadgedhub" transform="translate(0)">
    <path id="Path_4" data-name="Path 4" d="M14.867,0c8.211,0,14.867,9.174,14.867,20.492S23.077,40.983,14.867,40.983,0,31.809,0,20.492,6.656,0,14.867,0Z" transform="translate(26.703 3)" fill="none" stroke="#494949" stroke-width="6"/>
    <path id="Path_1" data-name="Path 1" d="M68.876,99.261h-54.6A14.27,14.27,0,0,1,.329,81.967l9.868-45.4A14.266,14.266,0,0,1,24.14,25.33H59A14.273,14.273,0,0,1,72.942,36.564l9.868,45.4A14.262,14.262,0,0,1,68.868,99.261Z" transform="translate(0 -4.386)" fill="#7aa93c"/>
    <path id="Path_2" data-name="Path 2" d="M47.291,48.22c8.542,0,15.292,4.09,18.6,10.937a2.671,2.671,0,0,1-2.379,3.857H57.553a2.739,2.739,0,0,1-2.266-1.27,9.291,9.291,0,0,0-8.116-4.139c-6.316,0-10.64,4.693-10.64,12.142s4.331,12.142,10.64,12.142a9.309,9.309,0,0,0,8.116-4.139,2.739,2.739,0,0,1,2.266-1.27h5.955a2.668,2.668,0,0,1,2.379,3.857c-3.311,6.831-10.061,10.873-18.6,10.873-12.448,0-21.223-8.84-21.223-21.464s8.775-21.52,21.223-21.52Z" transform="translate(-5.118 -8.881)" fill="#fff"/>
    <path id="Path_3" data-name="Path 3" d="M51.6,70.05H76.131a3.409,3.409,0,0,1,3.407,3.407V74.55a3.409,3.409,0,0,1-3.407,3.407H51.6A3.409,3.409,0,0,1,48.19,74.55V73.457A3.409,3.409,0,0,1,51.6,70.05Z" transform="translate(-9.465 -13.169)" fill="#fff"/>
    <path id="Path_5" data-name="Path 5" d="M19.692-43.36c-9.955,0-17.545,7.294-17.545,17.595S9.736-8.22,19.741-8.22A16.812,16.812,0,0,0,36.547-21.626v-6.013H17.918v5.273H29.746c-1.035,4.879-4.436,7.935-9.758,7.935-6.407,0-10.744-4.337-10.744-11.335C9.244-32.616,13.531-37,19.692-37c3.647,0,6.506,1.528,8.083,4.436h7.935C33.492-39.467,27.38-43.36,19.692-43.36ZM65.034-8.516h7.294l-12.37-34.45H51.924L39.554-8.516H46.8l2.267-6.555h13.7Zm-4.14-12.075H50.938l4.978-14.391ZM88.986-42.917H76.961v34.4H88.986c10.99,0,18.137-6.752,18.137-17.151C107.123-36.115,99.976-42.917,88.986-42.917ZM83.86-14.381V-37.1H88.74c7.245,0,11.335,4.288,11.335,11.434S95.984-14.381,88.74-14.381ZM128.167-43.36c-9.955,0-17.545,7.294-17.545,17.595S118.212-8.22,128.217-8.22a16.812,16.812,0,0,0,16.806-13.405v-6.013h-18.63v5.273h11.828c-1.035,4.879-4.436,7.935-9.758,7.935-6.407,0-10.744-4.337-10.744-11.335,0-6.851,4.288-11.237,10.448-11.237,3.647,0,6.506,1.528,8.083,4.436h7.935C141.967-39.467,135.856-43.36,128.167-43.36Zm41.941.394h-19.96v34.45h19.96v-5.618h-13.06v-9.118H168.63v-5.471H157.048v-8.625h13.06Zm4.436,5.618h9.167V-8.516h6.9V-37.348h9.167v-5.569H174.544Zm51.9,28.831h6.9v-34.4h-6.9v14.145H211.7V-42.917h-6.9v34.4h6.9V-23.154h14.736Zm13.6-13.159c0,9.068,6.21,13.5,13.75,13.5s14.046-4.436,14.046-13.5V-42.917h-6.949v21.291c0,4.731-2.563,7.2-7,7.2-4.386,0-6.949-2.464-6.949-7.2V-42.917h-6.9Zm53.622,3.006c0,2.908-1.971,4.534-5.323,4.534h-6.949V-23.4h6.8C291.546-23.4,293.665-21.626,293.665-18.669Zm-.838-14.342c0,2.809-1.873,4.288-5.126,4.288h-6.308v-8.625H287.7C290.954-37.348,292.827-35.77,292.827-33.011Zm7.836,15.18a8.34,8.34,0,0,0-6.653-8.329,7.931,7.931,0,0,0,5.865-7.886c0-5.126-3.992-8.871-11.188-8.871H274.493v34.4h14.835C296.474-8.516,300.663-12.36,300.663-17.831Z" transform="translate(99.594 82.136)" fill="#fff"/>
  </g>
</svg>
